<svg width="182" height="48" viewBox="0 0 182 48" fill="none" xmlns="http://www.w3.org/2000/svg">
<path d="M71.2539 0.981689V13.223H71.1002C70.8953 12.762 68.3856 10.2011 63.7247 10.2011C57.7833 10.2011 51.1249 14.7083 51.1249 24.0302C51.1249 33.352 57.7833 37.8592 63.7247 37.8592C68.3856 37.8592 70.8953 35.2983 71.1002 34.8373H71.2539V37.3471H80.1147V0.981689H71.2539ZM65.6198 30.0228C62.5467 30.0228 59.8321 27.7691 59.8321 24.0302C59.8321 20.2912 62.5467 18.0376 65.6198 18.0376C68.7954 18.0376 71.4588 20.24 71.4588 24.0302C71.4588 27.8204 68.7954 30.0228 65.6198 30.0228Z" fill="black"/>
<path d="M84.6172 8.6133H93.4781V0.981689H84.6172V8.6133ZM84.6172 37.3471H93.4781V10.7133H84.6172V37.3471Z" fill="black"/>
<path d="M109.291 37.8592C113.952 37.8592 116.462 35.2983 116.667 34.8373H116.821V37.3471H125.681V10.7133H116.821V13.223H116.667C116.462 12.762 113.952 10.2011 109.291 10.2011C103.35 10.2011 96.6916 14.7083 96.6916 24.0302C96.6916 33.352 103.35 37.8592 109.291 37.8592ZM111.187 30.0228C108.113 30.0228 105.399 27.7691 105.399 24.0302C105.399 20.2912 108.113 18.0376 111.187 18.0376C114.362 18.0376 117.026 20.24 117.026 24.0302C117.026 27.8204 114.362 30.0228 111.187 30.0228Z" fill="black"/>
<path d="M147.189 10.2011C142.476 10.2011 139.916 13.5815 139.045 17.9863V10.7133H130.184V37.3471H139.045V27.0009C139.045 22.1863 141.913 18.7034 147.24 18.7034C147.957 18.7034 148.52 18.7546 149.186 18.9083V10.4572C148.469 10.2523 147.803 10.2011 147.189 10.2011Z" fill="black"/>
<path d="M172.06 10.7133L165.863 27.0009L159.614 10.7133H150.599L161.612 37.091L157.258 47.0786H165.914L181.075 10.7133H172.06Z" fill="black"/>
<path d="M18.6738 0C30.7548 0.000167843 40.5479 9.79403 40.5479 21.875C40.5477 33.9558 30.7547 43.7489 18.6738 43.749H8.10938C3.63067 43.7489 0 40.1184 0 35.6396V8.10938C0.000149865 3.63076 3.63076 0.000146347 8.10938 0H8.53613V18.1396L12.8047 13.8721L17.0732 18.1396V0H18.6738Z" fill="url(#paint0_linear_66_178)"/>
<defs>
<linearGradient id="paint0_linear_66_178" x1="20.2739" y1="0" x2="20.2739" y2="43.749" gradientUnits="userSpaceOnUse">
<stop stop-color="#1DE15C"/>
<stop offset="1" stop-color="#EEFF20"/>
</linearGradient>
</defs>
</svg>
